<svg height="128" width="128" xmlns="http://www.w3.org/2000/svg" xmlns:xlink="http://www.w3.org/1999/xlink"><linearGradient id="a"><stop offset="0" stop-color="#fff"/><stop offset=".27272767" stop-color="#fff" stop-opacity=".235294"/><stop offset=".85491264" stop-color="#fff" stop-opacity=".156863"/><stop offset="1" stop-color="#fff" stop-opacity=".392157"/></linearGradient><linearGradient id="b"><stop offset="0" stop-color="#fff" stop-opacity=".27451"/><stop offset="1" stop-color="#fff" stop-opacity="0"/></linearGradient><linearGradient id="c"><stop offset="0"/><stop offset="1" stop-opacity="0"/></linearGradient><linearGradient id="d" gradientTransform="matrix(2.6746618 0 0 2.5459707 -893.97886 -122.09114)" gradientUnits="userSpaceOnUse" x1="361.10583" x2="361.10583" y1="87.050117" y2="94.396416"><stop offset="0" stop-color="#787878"/><stop offset=".35046947" stop-color="#b4b4b4"/><stop offset=".49417919" stop-color="#c8c8c8"/><stop offset=".58907253" stop-color="#e6e6e6"/><stop offset="1" stop-color="#8c8c8c"/></linearGradient><radialGradient id="e" cx="6.702713" cy="73.615715" gradientTransform="matrix(5.2570306 0 0 1.1067431 28.763637 34.526312)" gradientUnits="userSpaceOnUse" r="7.228416" xlink:href="#c"/><linearGradient id="f" gradientTransform="matrix(3.1000007 0 0 3.136008 -1.100012 35.088071)" gradientUnits="userSpaceOnUse" x1="10" x2="20" xlink:href="#b" y1="-3" y2="12"/><linearGradient id="g" gradientTransform="matrix(3.3243244 0 0 2.3243242 -15.783808 -2.283757)" gradientUnits="userSpaceOnUse" x1="23.99999" x2="23.99999" y1="5.753176" y2="42.121033"><stop offset="0" stop-color="#fff"/><stop offset=".01596775" stop-color="#fff" stop-opacity=".235294"/><stop offset=".99257565" stop-color="#fff" stop-opacity=".156863"/><stop offset="1" stop-color="#fff" stop-opacity=".392157"/></linearGradient><linearGradient id="h" gradientTransform="matrix(2.8500006 0 0 3.2608694 4.150005 42.086958)" gradientUnits="userSpaceOnUse" x1="15" x2="15" y1="24.618645" y2="2"><stop offset="0" stop-color="#261e2b"/><stop offset="1" stop-color="#352f39"/></linearGradient><linearGradient id="i" gradientTransform="matrix(1.2162163 0 0 .83783786 2.666359 14.977385)" gradientUnits="userSpaceOnUse" x1="47.546879" x2="47.546879" y1="121.84093" y2="99.079079"><stop offset="0" stop-color="#fff"/><stop offset=".01719457" stop-color="#fff" stop-opacity=".235294"/><stop offset="1" stop-color="#fff" stop-opacity=".156863"/><stop offset="1" stop-color="#fff" stop-opacity=".392157"/></linearGradient><linearGradient id="j"><stop offset="0" stop-color="#fff"/><stop offset=".44444457" stop-color="#fff" stop-opacity=".235294"/><stop offset=".77777803" stop-color="#fff" stop-opacity=".156863"/><stop offset="1" stop-color="#fff" stop-opacity=".392157"/></linearGradient><linearGradient id="k"><stop offset="0" stop-color="#d1d1d1"/><stop offset="1" stop-color="#eaeaea"/></linearGradient><radialGradient id="l" cx="62.625" cy="4.625" gradientTransform="matrix(1.0395279 0 0 .29384563 25.711664 116.45212)" gradientUnits="userSpaceOnUse" r="10.625" xlink:href="#c"/><linearGradient id="m"><stop offset="0" stop-color="#f89b7e"/><stop offset=".26238" stop-color="#e35d4f"/><stop offset=".66093999" stop-color="#c6262e"/><stop offset="1" stop-color="#690b2c"/></linearGradient><radialGradient id="n" cx="14.999991" cy="1039.7" gradientTransform="matrix(-1.4989921 -3.0166668 -4.4969234 2.2625116 4789.1829 -2214.3551)" gradientUnits="userSpaceOnUse" r="3.526658" xlink:href="#k"/><radialGradient id="o" cx="14.999991" cy="1039.7" gradientTransform="matrix(1.4989933 -3.0167041 4.496927 2.2625397 -4588.1898 -2214.3837)" gradientUnits="userSpaceOnUse" r="3.526658" xlink:href="#k"/><linearGradient id="p" gradientTransform="matrix(1.9772607 0 0 1.9889104 -102.99724 -70.817228)" gradientUnits="userSpaceOnUse" x1="106.7119" x2="109.24065" xlink:href="#b" y1="76.834648" y2="79.348587"/><radialGradient id="q" cx="9.423187" cy="9.994116" gradientTransform="matrix(0 2.2077219 -4.3722044 0 95.229125 20.927301)" gradientUnits="userSpaceOnUse" r="12.671875" xlink:href="#m"/><linearGradient id="r" gradientTransform="matrix(1.0368452 0 -.00451336 1.0845986 -6.617194 -19.466744)" gradientUnits="userSpaceOnUse" x1="51.953075" x2="51.930618" xlink:href="#a" y1="70.493774" y2="65.334999"/><linearGradient id="s" gradientTransform="matrix(1.0368452 0 -.00451336 1.0845986 -6.617194 -19.466744)" gradientUnits="userSpaceOnUse" x1="53.392788" x2="53.42622" xlink:href="#j" y1="64.397041" y2="72.077164"/><linearGradient id="t" gradientTransform="matrix(1.0368452 0 -.00451336 1.0845986 -6.617194 -19.466743)" gradientUnits="userSpaceOnUse" x1="51.953075" x2="51.930618" xlink:href="#a" y1="70.493774" y2="65.334999"/><linearGradient id="u" gradientTransform="matrix(1.0368452 0 -.00451336 1.0845986 -6.617194 -19.466743)" gradientUnits="userSpaceOnUse" x1="53.392788" x2="53.42622" xlink:href="#j" y1="64.397041" y2="72.077164"/><radialGradient id="v" cx="9.423187" cy="9.994116" gradientTransform="matrix(0 2.2077219 4.3722044 0 6.051624 20.927301)" gradientUnits="userSpaceOnUse" r="12.671875" xlink:href="#m"/><radialGradient id="w" cx="62.625" cy="4.625" gradientTransform="matrix(1.0395279 0 0 .29384563 44.941711 116.45212)" gradientUnits="userSpaceOnUse" r="10.625" xlink:href="#c"/><path d="m121.08713 117.81118c0 1.72435-4.94501 3.12212-11.04499 3.12212-6.09997 0-11.044979-1.39777-11.044979-3.12212 0-1.72434 4.945009-3.12211 11.044979-3.12211 6.09998 0 11.04499 1.39777 11.04499 3.12211z" fill="url(#w)" fill-rule="evenodd" opacity=".4"/><path d="m102 116c0 4.41828-17.013179 8-38.000002 8-20.98682 0-37.999998-3.58172-37.999998-8s17.013178-8 37.999998-8c20.986823 0 38.000002 3.58172 38.000002 8z" fill="url(#e)" opacity=".3"/><path d="m47.5 97.499139s.397503 10.838601-1.50061 13.364911c-1.898112 2.52633-5.675011 4.13662-5.675011 4.13662-2.423623.2654-2.443672 3.5002 0 3.5002h47.351051c2.443672 0 2.424131-3.23819 0-3.5002 0 0-3.776735-1.6103-5.674819-4.13662-1.898086-2.5263-1.500611-13.364911-1.500611-13.364911h-32.983056-.01694z" fill="url(#d)"/><path d="m47.5 97.499139s.397503 10.838601-1.50061 13.364911c-1.898112 2.52633-5.675011 4.13662-5.675011 4.13662-2.423623.2654-2.443672 3.5002 0 3.5002h47.351051c2.443672 0 2.424131-3.23819 0-3.5002 0 0-3.776735-1.6103-5.674819-4.13662-1.898086-2.5263-1.500611-13.364911-1.500611-13.364911h-32.983056-.01694z" style="fill:none;stroke:#000;stroke-width:.998275;stroke-linecap:round;stroke-linejoin:round;stroke-dashoffset:.5;opacity:.4"/><rect height="87.999756" rx="2.5" style="fill:#1a1a1a;stroke:#000;stroke-width:1.000239;stroke-linecap:round;stroke-linejoin:round;stroke-dashoffset:.5" width="124.99976" x="1.50012" y="9.500124"/><path d="m7.000002 16.000002h113.999998v75h-113.999998z" fill="url(#h)"/><rect fill="none" height="86" opacity=".2" rx="1.5" stroke="url(#g)" stroke-linecap="round" stroke-linejoin="round" width="122.99999" x="2.500005" y="10.500002"/><path d="m7 16v75h114v-75zm1 1h112v73h-112z" opacity=".2"/><path d="m2.0000053 10.000002v56.448151l124.0000047-41.160107v-15.288044z" fill="url(#f)" opacity=".2"/><path d="m48.478516 98.486328c.02065.733663.08406 2.260412-.03125 4.792972-.06997 1.53666-.199201 3.15889-.439454 4.59375-.240251 1.43485-.530844 2.66645-1.21875 3.58203-2.154724 2.86787-6.078125 4.45312-6.078124 4.45312-.08905.0376-.183159.062-.279297.0723-.78107.0855-.944221.50444-.945313.87109-.000546.18333.05961.3357.167969.44532.108361.1096.276609.21679.669922.21679h47.351562c.393085 0 .561397-.10695.669922-.21679.108525-.10986.170455-.26169.169922-.44532-.0011-.36726-.164558-.7867-.945313-.87109-.0968-.0101-.191578-.0344-.28125-.0723 0 0-3.923422-1.58525-6.078124-4.45312-.687899-.91557-.9785-2.14718-1.21875-3.58203-.240252-1.43485-.369484-3.05709-.439454-4.59375-.115315-2.53256-.0519-4.059308-.03125-4.792972" fill="none" opacity=".6" stroke="url(#i)" stroke-linecap="round" stroke-linejoin="round"/><path d="m101.85708 117.81118c0 1.72435-4.945006 3.12212-11.044983 3.12212-6.099978 0-11.044983-1.39777-11.044983-3.12212 0-1.72434 4.945005-3.12211 11.044983-3.12211 6.099977 0 11.044983 1.39777 11.044983 3.12211z" fill="url(#l)" fill-rule="evenodd" opacity=".4"/><g opacity=".5" transform="matrix(1.9764018 0 0 1.9769031 1.293021 3.903359)"><g fill="none" stroke="#000" stroke-width="1.011818"><path d="m48.97864 40.010301c4 0 4 0 4-4" opacity="1"/><path d="m52.97864 15.683322c0-4 0-4-4-4" opacity="1"/><path d="m10.477058 35.836752c0 4 0 4 4 4" opacity="1"/><path d="m14.477058 11.683322c-4 0-4 0-4 4" opacity="1"/></g><path d="m42 26v2h16v-2zm28 0v2h16v-2zm-49 21.072266v15.816406h2v-15.816406zm84 0v15.816406h2v-15.816406zm-63 34.927734v2h16v-2zm28 0v2h16v-2z" fill-rule="evenodd" opacity="1" transform="matrix(.50596999 0 0 .50584169 -.65423 -1.974482)"/></g><g opacity=".5" transform="matrix(1.9764018 0 0 1.9769031 1.293022 2.903358)"><path d="m48.97864 40.010301c4 0 4 0 4-4" fill="none" stroke="#fff" stroke-width="1.011818"/><path d="m52.97864 15.683322c0-4 0-4-4-4" fill="none" stroke="#fff" stroke-width="1.011818"/><path d="m10.477058 35.836752c0 4 0 4 4 4" fill="none" stroke="#fff" stroke-width="1.011818"/><path d="m14.477058 11.683322c-4 0-4 0-4 4" fill="none" stroke="#fff" stroke-width="1.011818"/><g fill="#fff" fill-rule="evenodd"><path d="m52.472619 21.836751h1.01194v8h-1.01194z"/><path d="m28.69203 39.504537v1.011683h-8.09552v-1.011683z"/><path d="m42.859189 39.504537v1.011683h-8.09552v-1.011683z"/><path d="m10.98308 29.836751h-1.0119403v-8h1.0119403z"/><path d="m34.763669 12.189086v-1.011683h8.09552v1.011683z"/><path d="m20.59651 12.189086v-1.011683h8.09552v1.011683z"/></g></g><path d="m100.49865 92.728311-14.009118-26.065283s-9.779941 20.745841 14.009118 34.044452z" fill="url(#n)"/><path d="m100.49853 92.728207 14.00913-26.065608s9.77995 20.746098-14.00913 34.044881z" fill="url(#o)"/><g transform="matrix(1.9733255 0 0 1.9659725 .388008 .957848)"><path d="m48.238901 49.59336c-.101183.0013-.220547.0069-.352356.01391-1.845322.09848-6.781858 1.226209-6.781857 4.68816 0 3.956383 2.932907 5.343849 4.687519 5.343849 1.754611 0 4.619446-1.332501 4.687519-5.343849.05426-3.197735-1.083968-4.491311-1.999323-4.68816-.05721-.01231-.140319-.01523-.241502-.01391zm-.352356 2.545259s.593767 6.842878-2.999972 4.156655c-3.99622-2.986975 2.999972-4.156655 2.999972-4.156655z" fill="url(#q)"/><path d="m53.041846 49.59336c.101183.0013.220547.0069.352356.01391 1.845322.09848 6.781858 1.226209 6.781857 4.68816 0 3.956383-2.932907 5.343849-4.687519 5.343849-1.754611 0-4.619446-1.332501-4.687519-5.343849-.05426-3.197735 1.083968-4.491311 1.999323-4.68816.05721-.01231.140319-.01523.241502-.01391zm.352356 2.545259s-.593767 6.842878 2.999972 4.156655c3.99622-2.986975-2.999972-4.156655-2.999972-4.156655z" fill="url(#v)"/><g fill="none" stroke-width=".507709"><path d="m53.038833 49.58442c-.09736.0031-.175384.01054-.232592.02285-.915354.196849-2.054575 1.490426-2.000314 4.688161.06807 4.011348 2.901235 5.343849 4.655846 5.343849 1.754612 0 4.687519-1.387466 4.687519-5.343849 0-3.709233-5.649985-4.756787-7.110459-4.711011zm.329591 2.5542s7.026874 1.16968 3.030655 4.156655c-3.59374 2.686223-3.030655-4.156655-3.030655-4.156655z" opacity=".6" stroke="#640000" stroke-linecap="round" stroke-linejoin="round"/><path d="m48.238901 49.59336c-.101183.0013-.220547.0069-.352356.01391-1.845322.09848-6.781858 1.226212-6.781857 4.688162 0 3.956383 2.932907 5.343849 4.687518 5.343849 1.754612 0 4.619447-1.332501 4.68752-5.343849.05426-3.197735-1.083968-4.491313-1.999323-4.688162-.05721-.0123-.140319-.01522-.241502-.01391zm-.352356 2.545259s.593767 6.842878-2.999972 4.156655c-3.99622-2.986974 2.999972-4.156655 2.999972-4.156655z" opacity=".6" stroke="#640000" stroke-linecap="round" stroke-linejoin="round"/><path d="m48.244365 50.094066c-.08854.0011-.201149.006-.330581.01291-.844987.0451-2.511635.34782-3.88878 1.031217s-2.419972 1.662897-2.419971 3.156239c0 1.854635.667152 3.030302 1.518297 3.782123.851145.751817 1.923872 1.062014 2.669391 1.062014.750741 0 1.802748-.29891 2.644648-1.043137.8419-.744233 1.511006-1.920322 1.543041-3.807953.0261-1.538389-.23932-2.579675-.580001-3.228763-.340684-.649089-.746028-.902589-1.025395-.962668 0 0-.04187-.0032-.130649-.002z" opacity=".3" stroke="url(#s)"/><path d="m47.854398 51.638907c.01648-.001.033-.001.04949 0 .252863.0087.459382.204906.481025.45699 0 0 .164309 1.740747-.162321 3.233733-.163315.74649-.434122 1.492493-1.097648 1.881618-.331763.194565-.754246.257211-1.181777.165913-.42753-.0913-.867646-.317242-1.354986-.68152-.533812-.398999-.910212-.782997-1.149115-1.180235-.238903-.397239-.330863-.824707-.261297-1.216996.139133-.784579.791343-1.278111 1.474747-1.642195 1.366807-.728174 3.152396-1.011352 3.152396-1.011352.01639-.0031.0329-.0046.04948-.006z" opacity=".3" stroke="url(#r)"/><g transform="matrix(-1 0 0 1 101.28122 0)"><path d="m48.244365 50.094066c-.08854.0011-.201149.006-.330581.01291-.844987.0451-2.511635.34782-3.88878 1.031217s-2.419972 1.662897-2.419971 3.156239c0 1.854635.667152 3.030302 1.518297 3.782123.851145.751817 1.923872 1.062014 2.669391 1.062014.750741 0 1.802748-.29891 2.644648-1.043137.8419-.744233 1.511006-1.920322 1.543041-3.807953.0261-1.538389-.23932-2.579675-.580001-3.228763-.340684-.649089-.746028-.902589-1.025395-.962668 0 0-.04187-.0032-.130649-.002z" opacity=".3" stroke="url(#u)"/><path d="m47.854398 51.638907c.01648-.001.033-.001.04949 0 .252863.0087.459382.204906.481025.45699 0 0 .164309 1.740747-.162321 3.233733-.163315.74649-.434122 1.492493-1.097648 1.881618-.331763.194565-.754246.257211-1.181777.165913-.42753-.0913-.867646-.317242-1.354986-.68152-.533812-.398999-.910212-.782997-1.149115-1.180235-.238903-.397239-.330863-.824707-.261297-1.216996.139133-.784579.791343-1.278111 1.474747-1.642195 1.366807-.728174 3.152396-1.011352 3.152396-1.011352.01639-.0031.0329-.0046.04948-.006z" opacity=".3" stroke="url(#t)"/></g></g></g><g fill="none" stroke-width="1.000006"><path d="m114.29492 69.199219-12.7832 23.785156v5.888672c10.35197-6.34146 13.41901-13.993937 13.90234-20.253906.34543-4.473844-.46501-7.498288-1.11914-9.419922z" stroke="url(#p)"/><path d="m114.29492 69.199219-12.7832 23.785156v5.888672c10.35197-6.34146 13.41901-13.993937 13.90234-20.253906.34543-4.473844-.46501-7.498288-1.11914-9.419922z" stroke="url(#p)" transform="matrix(-1 0 0 1 201.01633 0)"/><path d="m86.490234 66.662109s-9.781246 20.746309 14.007816 34.044921c23.78907-13.298784 14.00976-34.044921 14.00976-34.044921l-14.00976 26.066407z" opacity=".5" stroke="#000"/></g></svg>