<svg viewBox="0 0 400 300" xmlns="http://www.w3.org/2000/svg"><path d="m220.99 239.61 13.36-19.9 23.05 6.54-31.32-85.35-36.41 13.36z" fill="#093f68"/><path d="m221 240.61h-.12a1 1 0 0 1 -.82-.65l-31.32-85.34a1 1 0 0 1 .6-1.29l36.4-13.33a1 1 0 0 1 1.28.6l31.32 85.34a1 1 0 0 1 -1.21 1.31l-22.36-6.34-13 19.3a1 1 0 0 1 -.77.4zm-30-85.75 30.29 82.56 12.27-18.27a1 1 0 0 1 1.1-.4l21.17 6-30.3-82.57z" fill="#093f68"/><path d="m179.01 239.61-13.36-19.9-23.05 6.54 31.32-85.35 36.41 13.36z" fill="#68e1fd"/><path d="m179 240.61a1 1 0 0 1 -.83-.44l-13-19.3-22.36 6.34a1 1 0 0 1 -1.21-1.31l31.4-85.34a1 1 0 0 1 1.28-.6l36.41 13.36a1 1 0 0 1 .6 1.29l-31.29 85.39a1 1 0 0 1 -.82.65zm-13.36-21.9a1 1 0 0 1 .83.44l12.27 18.27 30.26-82.56-34.53-12.68-30.3 82.57 21.17-6a.84.84 0 0 1 .31-.04z" fill="#093f68"/><path d="m261.45 119.12c0 6.16-9.53 10.74-11.33 16.29-1.87 5.76 3.08 15.05-.41 19.84s-13.91 3-18.74 6.5-6.22 14-12 15.83c-5.55 1.8-12.83-5.77-19-5.77s-13.44 7.57-19 5.77c-5.76-1.87-7.18-12.34-12-15.83s-15.22-1.66-18.74-6.5 1.46-14.08-.41-19.84c-1.8-5.55-11.33-10.13-11.33-16.29s9.53-10.73 11.33-16.28c1.87-5.76-3.08-15 .41-19.84s13.97-3 18.77-6.5 6.22-14 12-15.83c5.55-1.8 12.83 5.77 19 5.77s13.44-7.57 19-5.77c5.76 1.87 7.18 12.34 12 15.83s15.22 1.66 18.74 6.5-1.46 14.08.41 19.84c1.77 5.55 11.3 10.16 11.3 16.28z" fill="#68e1fd"/><path d="m217.17 178.86c-2.85 0-5.9-1.57-8.86-3.09s-5.77-3-8.31-3-5.47 1.5-8.31 3c-3.71 1.91-7.55 3.88-11 2.76-3.61-1.17-5.59-5.12-7.51-8.94-1.38-2.77-2.82-5.63-4.74-7s-5.16-1.92-8.24-2.39c-4.2-.65-8.54-1.32-10.73-4.33s-1.48-7.29-.81-11.46c.5-3.1 1-6.31.26-8.66s-2.86-4.33-5.14-6.57c-3.06-3-6.24-6.15-6.24-10s3.18-7 6.24-10c2.28-2.25 4.42-4.36 5.14-6.57s.24-5.56-.26-8.67c-.67-4.16-1.36-8.46.81-11.45s6.53-3.68 10.73-4.33c3.08-.47 6.28-1 8.24-2.39s3.36-4.26 4.74-7c1.92-3.82 3.9-7.77 7.51-8.94 3.44-1.12 7.28.85 11 2.76 2.84 1.45 5.77 3 8.31 3s5.47-1.51 8.31-3c3.71-1.91 7.55-3.88 11-2.76 3.61 1.17 5.59 5.12 7.51 8.94 1.38 2.77 2.82 5.63 4.74 7s5.16 1.92 8.24 2.39c4.2.65 8.54 1.31 10.73 4.33s1.48 7.29.81 11.45c-.5 3.11-1 6.32-.26 8.67s2.86 4.32 5.14 6.57c3.06 3 6.24 6.15 6.24 10s-3.18 7-6.24 10c-2.28 2.25-4.42 4.36-5.14 6.57s-.24 5.56.26 8.66c.67 4.17 1.36 8.47-.81 11.46s-6.53 3.68-10.73 4.33c-3.08.47-6.28 1-8.24 2.39s-3.36 4.26-4.74 7c-1.92 3.82-3.9 7.77-7.51 8.94a6.68 6.68 0 0 1 -2.14.33zm-34.32-117.47a4.89 4.89 0 0 0 -1.53.23c-2.81.91-4.61 4.48-6.34 7.94-1.49 3-3 6.06-5.36 7.75s-5.79 2.24-9.11 2.75c-3.79.58-7.71 1.18-9.42 3.53s-1.08 6-.44 10c.54 3.34 1.09 6.79.18 9.6s-3.29 5.06-5.63 7.37c-2.78 2.74-5.65 5.57-5.65 8.6s2.87 5.87 5.65 8.61c2.34 2.31 4.76 4.7 5.63 7.37s.36 6.26-.18 9.6c-.64 3.93-1.24 7.65.44 10s5.63 3 9.42 3.53c3.32.51 6.76 1 9.11 2.75s3.87 4.77 5.36 7.75c1.73 3.45 3.52 7 6.34 7.94 2.65.86 6-.84 9.45-2.64 3-1.56 6.21-3.18 9.23-3.18s6.18 1.62 9.23 3.18c3.5 1.8 6.8 3.5 9.45 2.64 2.81-.91 4.61-4.49 6.34-7.94 1.49-3 3-6.06 5.36-7.75s5.79-2.24 9.11-2.75c3.79-.58 7.71-1.18 9.42-3.53s1.08-6 .44-10c-.54-3.34-1.09-6.79-.18-9.6s3.29-5.06 5.63-7.37c2.78-2.74 5.65-5.57 5.65-8.61s-2.87-5.86-5.65-8.6c-2.34-2.31-4.76-4.7-5.63-7.37s-.36-6.26.18-9.6c.64-3.94 1.24-7.65-.44-10s-5.63-3-9.42-3.53c-3.32-.51-6.76-1-9.11-2.75s-3.87-4.77-5.36-7.75c-1.73-3.46-3.52-7-6.34-7.94-2.65-.86-6 .84-9.45 2.64-3 1.56-6.21 3.18-9.23 3.18s-6.18-1.62-9.23-3.18c-2.85-1.47-5.58-2.87-7.92-2.87z" fill="#093f68"/><circle cx="200" cy="119.12" fill="#fff" r="43.71"/><path d="m200 163.83a44.71 44.71 0 1 1 44.71-44.71 44.76 44.76 0 0 1 -44.71 44.71zm0-87.41a42.71 42.71 0 1 0 42.71 42.7 42.75 42.75 0 0 0 -42.71-42.7z" fill="#093f68"/><path d="m204.62 92.37 4.87 15a1.5 1.5 0 0 0 1.42 1h15.79a4.85 4.85 0 0 1 2.85 8.78l-12.77 9.28a1.5 1.5 0 0 0 -.54 1.67l4.88 15a4.86 4.86 0 0 1 -7.47 5.43l-12.77-9.28a1.5 1.5 0 0 0 -1.76 0l-12.77 9.28a4.86 4.86 0 0 1 -7.47-5.43l4.88-15a1.5 1.5 0 0 0 -.54-1.67l-12.77-9.28a4.85 4.85 0 0 1 2.85-8.78h15.79a1.5 1.5 0 0 0 1.42-1l4.87-15a4.86 4.86 0 0 1 9.24 0z" fill="#ffbc0e"/><path d="m183.5 150.53a5.88 5.88 0 0 1 -5.57-7.68l4.88-15a.5.5 0 0 0 -.18-.56l-12.77-9.29a5.85 5.85 0 0 1 3.44-10.59h15.78a.51.51 0 0 0 .48-.34l4.87-15a5.86 5.86 0 0 1 11.14 0l4.87 15a.51.51 0 0 0 .48.34h15.78a5.85 5.85 0 0 1 3.44 10.59l-12.77 9.28a.48.48 0 0 0 -.18.55l4.88 15a5.86 5.86 0 0 1 -9 6.55l-12.77-9.28a.48.48 0 0 0 -.58 0l-12.77 9.28a5.83 5.83 0 0 1 -3.45 1.15zm-10.2-41.11a3.85 3.85 0 0 0 -2.27 7l12.78 9.28a2.49 2.49 0 0 1 .9 2.79l-4.88 15a3.85 3.85 0 0 0 5.93 4.31l12.77-9.28a2.49 2.49 0 0 1 2.94 0l12.77 9.28a3.85 3.85 0 0 0 5.93-4.31l-4.88-15a2.49 2.49 0 0 1 .9-2.79l12.81-9.31a3.85 3.85 0 0 0 -2.27-7h-15.81a2.49 2.49 0 0 1 -2.38-1.73l-4.88-15a3.85 3.85 0 0 0 -7.32 0l-4.88 15a2.49 2.49 0 0 1 -2.38 1.73z" fill="#093f68"/><path d="m189.67 113.59h-14.83a1 1 0 0 1 0-2h14.83a1 1 0 0 1 0 2z" fill="#fff"/></svg>