<svg fill="none" height="56" viewBox="0 0 56 56" width="56" xmlns="http://www.w3.org/2000/svg" xmlns:xlink="http://www.w3.org/1999/xlink"><linearGradient id="a" gradientUnits="userSpaceOnUse" x1="48.1466" x2="-16.6623" y1="-55.772" y2="-6.95132"><stop offset="0" stop-color="#c8dabf"/><stop offset="1" stop-color="#708d58"/></linearGradient><g clip-rule="evenodd" fill-rule="evenodd"><path d="m21.5816 5.25114c-1.6569 0-3 1.34315-3 3.00001v1.47588h18.7058c1.6569 0 3 1.34317 3 2.99997v30.2753l1.6157 1.0906c1.9925 1.345 4.6785-.0825 4.6785-2.4865v-33.35526c0-1.65685-1.3431-3-3-3zm3.1155 37.87176c-.719-.099-1.466.0639-2.0926.4884l-1.4321.9705c.69.0983 1.427-.0428 2.0877-.4889z" fill="url(#a)"/><path d="m10.2874 14.3466c0-1.6568 1.3432-3 3-3h22c1.6569 0 3 1.3432 3 3v33.5667c0 2.4783-2.8346 3.8878-4.8106 2.3921l-7.3788-5.5853c-1.071-.8106-2.5502-.8106-3.6212 0l-7.3788 5.5853c-1.976 1.4957-4.8106.0862-4.8106-2.3921z" fill="#bdd6a8"/><path d="m24.1634 31.493-3.6008 2.2438c-.3049.1901-.6863-.087-.5998-.4357l1.0214-4.118-3.2468-2.7311c-.2749-.2313-.1292-.6796.2291-.7051l4.232-.3011 1.5942-3.9318c.135-.333.6064-.333.7414 0l1.5941 3.9318 4.232.3011c.3584.0255.5041.4738.2291.7051l-3.2467 2.7311 1.0213 4.118c.0865.3487-.2949.6258-.5998.4357z" fill="#fff"/></g></svg>