<svg viewBox="0 0 400 300" xmlns="http://www.w3.org/2000/svg"><path d="m235.09 60.63c-9.11-.6-18.94 3.46-25.84 8.82-10.57 8.2-15.76 20.21-16.34 33.34l-1.57 35.13c-.77 17.28-4.18 36.83 12.55 47.88 8.66 5.72 19.35 7.46 29.72 7.83 12.85.46 25.95-1 38.05-5.56 9.76-3.65 24-10.49 24.89-22.5.46-6.63-3.74-12.56-6-18.8-4.8-13.17-1-27.82-2.58-41.74-1.66-14.37-15.48-44.84-34.65-38.84a7.18 7.18 0 0 1 -3 .62 6.1 6.1 0 0 1 -2.88-1.61 21.93 21.93 0 0 0 -12.35-4.57z" fill="#725858"/><path d="m238 194.71c-1.47 0-3 0-4.46-.08-13.08-.47-22.69-3-30.23-8-15.31-10.12-14.31-26.75-13.31-42.84.12-2 .24-4 .33-5.91l1.57-35.13c.64-14.31 6.42-26.1 16.73-34.09 6.18-4.8 16.38-9.68 26.51-9a22.94 22.94 0 0 1 12.93 4.78l.24.2a3.2 3.2 0 0 0 4.1.82l.58-.2c5.24-1.64 10.42-.82 15.41 2.42 11.45 7.44 19.28 26.42 20.53 37.27a110.92 110.92 0 0 1 .25 16.5c-.31 8.8-.6 17.12 2.28 25 .65 1.8 1.49 3.62 2.3 5.37 2 4.38 4.12 8.91 3.78 13.85-.66 9.42-9.25 17.28-25.54 23.37a96.93 96.93 0 0 1 -34 5.67zm-4.73-133.14c-9 0-17.87 4.37-23.41 8.67-9.83 7.62-15.34 18.89-16 32.6l-1.52 35.16c-.09 1.95-.21 3.94-.33 5.94-.95 15.52-1.93 31.57 12.43 41.06 7.22 4.77 16.5 7.2 29.2 7.66 13.92.5 26.59-1.35 37.67-5.5 15.49-5.78 23.64-13.06 24.24-21.63.31-4.43-1.58-8.53-3.59-12.87-.83-1.79-1.69-3.65-2.37-5.52-3-8.26-2.7-17.16-2.4-25.76a109.43 109.43 0 0 0 -.24-16.2c-1.2-10.46-8.7-28.72-19.63-35.82a15.65 15.65 0 0 0 -13.72-2.19l-.54.18a6.26 6.26 0 0 1 -2.84.49 6.45 6.45 0 0 1 -3.15-1.64l-.23-.18a20.85 20.85 0 0 0 -11.84-4.39c-.56-.04-1.14-.06-1.73-.06z" fill="#093f68"/><path d="m252.65 165.68h-18.22c-8.68 0-18.18-1.59-24.32 6-2.75 3.41-3.49 8.22-5.17 12.21-2.62 6.24-7 16.69-14.29 18.72-14.5 4-28.9 1.87-29 1.85a9 9 0 1 0 -2.83 17.77 86.6 86.6 0 0 0 12.52.82 91.63 91.63 0 0 0 24.15-3.1c5.84-1.62 14.31-5.41 19.06-11.29v20.73h57.75v-44.06a19.65 19.65 0 0 0 -19.65-19.65z" fill="#68e1fd"/><path d="m272.3 230.41h-57.78a1 1 0 0 1 -1-1v-18.15c-4.9 4.82-12.18 8.12-17.79 9.68a91.53 91.53 0 0 1 -24.42 3.13 88.57 88.57 0 0 1 -12.68-.83 10 10 0 1 1 3.15-19.75c.13 0 14.45 2.1 28.6-1.83 6.8-1.88 11.05-12 13.59-18l.05-.12c.54-1.27 1-2.62 1.43-4 .94-2.94 1.92-6 3.88-8.4 5.55-6.89 13.54-6.67 21.27-6.47 1.28 0 2.56.07 3.83.07h18.22a20.67 20.67 0 0 1 20.65 20.65v44.08a1 1 0 0 1 -1 .94zm-56.78-2h55.78v-43.08a18.67 18.67 0 0 0 -18.65-18.65h-18.22c-1.29 0-2.58 0-3.89-.07-7.57-.21-14.72-.39-19.66 5.72-1.72 2.14-2.64 5-3.53 7.76-.45 1.4-.92 2.85-1.48 4.21l-.06.12c-2.68 6.37-7.16 17-14.89 19.17a78.9 78.9 0 0 1 -29.45 1.88 8 8 0 0 0 -2.52 15.8 86.39 86.39 0 0 0 12.36.8 89.53 89.53 0 0 0 23.88-3.07c6.05-1.68 14.09-5.43 18.55-11a1 1 0 0 1 1.78.63z" fill="#093f68"/><path d="m227.83 168.13s2 29.94 4.55 36.6l7.25-36.6z" fill="#093f68"/><path d="m232.38 205.73a1 1 0 0 1 -.93-.65c-2.56-6.71-4.53-35.65-4.62-36.88a1 1 0 0 1 .27-.75 1 1 0 0 1 .73-.32h11.8a1 1 0 0 1 .77.37 1 1 0 0 1 .21.83l-7.25 36.59a1 1 0 0 1 -.9.8zm-3.48-36.6c.33 4.5 1.66 22 3.36 31.05l6.15-31.05z" fill="#093f68"/><path d="m232.81 159.53h1.83a5.21 5.21 0 0 1 5.21 5.21v7.08a0 0 0 0 1 0 0h-12.25a0 0 0 0 1 0 0v-7.08a5.21 5.21 0 0 1 5.21-5.21z" fill="#ffc9b0" transform="matrix(-1 0 0 -1 467.46 331.35)"/><path d="m234.65 172.82h-1.84a6.22 6.22 0 0 1 -6.21-6.21v-7.08a1 1 0 0 1 1-1h12.25a1 1 0 0 1 1 1v7.08a6.21 6.21 0 0 1 -6.2 6.21zm-6.05-12.29v6.08a4.22 4.22 0 0 0 4.21 4.21h1.84a4.21 4.21 0 0 0 4.2-4.21v-6.08z" fill="#093f68"/><path d="m256.84 127.62c0 5.68 5.33 10.28 11.9 10.28s11.9-7.58 11.9-13.26-5.33-7.31-11.9-7.31-11.9 4.61-11.9 10.29z" fill="#ffc9b0"/><path d="m268.74 138.9c-7.12 0-12.9-5.06-12.9-11.28s5.78-11.29 12.9-11.29c8.56 0 12.9 2.8 12.9 8.31 0 6.42-5.95 14.26-12.9 14.26zm0-20.57c-6 0-10.9 4.17-10.9 9.29s4.89 9.28 10.9 9.28c5.77 0 10.9-6.85 10.9-12.26 0-1.56 0-6.31-10.9-6.31z" fill="#093f68"/><path d="m187.45 124.64c0 5.68 5.33 13.26 11.9 13.26s11.9-4.6 11.9-10.28-5.32-10.29-11.9-10.29-11.9 1.67-11.9 7.31z" fill="#ffc9b0"/><path d="m199.35 138.9c-6.95 0-12.9-7.84-12.9-14.26 0-5.51 4.34-8.31 12.9-8.31 7.12 0 12.9 5.07 12.9 11.29s-5.78 11.28-12.9 11.28zm0-20.57c-10.9 0-10.9 4.75-10.9 6.31 0 5.41 5.13 12.26 10.9 12.26 6 0 10.9-4.16 10.9-9.28s-4.89-9.29-10.9-9.29z" fill="#093f68"/><path d="m233.73 161.14a35.94 35.94 0 0 0 35.89-36v-16.66c0-8.66-13.17-24.81-21.79-24.81 0 0-1.4 8.18-15 15.34-9.49 5-22.87 5.33-35-3.15v29.28a35.94 35.94 0 0 0 35.9 36z" fill="#ffc9b0"/><path d="m233.73 162.14a37 37 0 0 1 -36.9-37v-29.28a1 1 0 0 1 .54-.89 1 1 0 0 1 1 .07c12.66 8.82 25.86 7.38 34 3.08 12.88-6.8 14.43-14.55 14.44-14.63a1 1 0 0 1 1-.82c4.24 0 9.81 3.55 14.89 9.51 4.88 5.71 7.9 11.95 7.9 16.29v16.67a37 37 0 0 1 -36.87 37zm-34.9-64.42v27.42a34.9 34.9 0 1 0 69.79 0v-16.67c0-7.74-11.88-22.85-20-23.76-.76 2.38-3.84 9.15-15.26 15.18-8.36 4.39-21.62 6-34.53-2.17z" fill="#093f68"/><path d="m259.41 111.72-15.85-.2a2 2 0 0 1 -2-2 2 2 0 0 1 2-2l15.85.2a2 2 0 0 1 0 4z" fill="#093f68"/><path d="m206.6 111.44a2 2 0 0 1 0-4l15.85-.11a2 2 0 1 1 0 4z" fill="#093f68"/><path d="m219.15 139.59h26.46s-2.47 12.46-12.48 11.83c-14.35-.89-13.98-11.83-13.98-11.83z" fill="#fff"/><path d="m233.86 152.44c-.26 0-.52 0-.79 0-12.12-.76-15.06-8.75-14.92-12.86a1 1 0 0 1 1-1h26.46a1 1 0 0 1 .78.37 1 1 0 0 1 .21.82c-.03.14-2.6 12.67-12.74 12.67zm-13.65-11.85c.3 2.54 2.14 9.16 13 9.83 7.36.47 10.27-6.87 11.14-9.83z" fill="#093f68"/><path d="m270.76 116.34s4.56-18.45-6.45-34.3-39.14-17-50.12-10c-17.15 11-16.36 23.8-16.36 23.8s-4.17-35.36 37.26-35.23c37.37.14 46.71 30.92 35.67 55.73z" fill="#ffbc0e"/><path d="m270.76 117.34a1.19 1.19 0 0 1 -.32 0 1 1 0 0 1 -.65-1.19c0-.18 4.31-18.22-6.3-33.49s-37.82-16.75-48.76-9.71c-16.47 10.59-15.91 22.77-15.9 22.9a1 1 0 0 1 -2 .18c-.07-.6-1.61-14.71 7.82-25.28 6.55-7.35 16.71-11.07 30.19-11.07h.24c20.43.07 30.47 9 35.29 16.41 7.09 11 7.59 26.56 1.3 40.71a1 1 0 0 1 -.91.54zm-39.06-50.34c12.34 0 26.43 4.4 33.43 14.49a44.54 44.54 0 0 1 7.59 26.09c2.71-11 1.34-22.15-4-30.43-6.53-10.09-18.15-15.45-33.61-15.5h-.24c-12.88 0-22.53 3.49-28.68 10.38a29.36 29.36 0 0 0 -6.7 13.91c2.26-4.42 6.45-9.73 14.18-14.7 4.23-2.76 10.84-4.24 18.03-4.24z" fill="#093f68"/><rect fill="#093f68" height="10.02" rx="4.66" transform="matrix(-1 0 0 -1 397.79 468.84)" width="190.96" x="103.41" y="229.41"/><path d="m289.72 240.43h-181.65a5.66 5.66 0 0 1 -5.65-5.66v-.71a5.66 5.66 0 0 1 5.65-5.65h181.65a5.67 5.67 0 0 1 5.66 5.65v.71a5.67 5.67 0 0 1 -5.66 5.66zm-181.65-10a3.65 3.65 0 0 0 -3.65 3.65v.71a3.65 3.65 0 0 0 3.65 3.66h181.65a3.66 3.66 0 0 0 3.66-3.66v-.71a3.66 3.66 0 0 0 -3.66-3.65z" fill="#093f68"/><path d="m171.55 221.99h36.26v7.42h-36.26z" fill="#ffbc0e" transform="matrix(-1 0 0 -1 379.37 451.39)"/><path d="m207.82 230.41h-36.27a1 1 0 0 1 -1-1v-7.41a1 1 0 0 1 1-1h36.27a1 1 0 0 1 1 1v7.42a1 1 0 0 1 -1 .99zm-35.27-2h34.27v-5.41h-34.27z" fill="#093f68"/><path d="m122.47 221.99h49.09v7.42h-49.09z" fill="#ffbc0e" transform="matrix(-1 0 0 -1 294.02 451.39)"/><path d="m171.55 230.41h-49.08a1 1 0 0 1 -1-1v-7.41a1 1 0 0 1 1-1h49.08a1 1 0 0 1 1 1v7.42a1 1 0 0 1 -1 .99zm-48.08-2h47.08v-5.41h-47.08z" fill="#093f68"/><path d="m122.47 222h49.08l-10.07-33.47a3.32 3.32 0 0 0 -3.19-2.37h-42.14a3.32 3.32 0 0 0 -3.18 4.28z" fill="#ffbc0e"/><path d="m171.55 223h-49.08a1 1 0 0 1 -1-.72l-9.47-31.56a4.32 4.32 0 0 1 4.14-5.57h42.14a4.3 4.3 0 0 1 4.15 3.08l10.07 33.47a1 1 0 0 1 -.15.88 1 1 0 0 1 -.8.42zm-48.34-2h47l-9.69-32.19a2.31 2.31 0 0 0 -2.23-1.65h-42.14a2.33 2.33 0 0 0 -2.22 3z" fill="#093f68"/><path d="m221.57 215.52-1.71-.72c-3.81-1.6-12.86-5.3-15.54-5.75-3.43-.57-9.9.38-10.66 0s-6.47 6-6.66 8 7 4.32 8.95 3a54.88 54.88 0 0 1 5.13-3s4.38 9.64 17.51 8.6" fill="#ffc9b0"/><path d="m216.65 226.78a18.89 18.89 0 0 1 -12.38-4.22 17 17 0 0 1 -3.6-4.12c-1.07.58-2.92 1.6-4.15 2.46-1.84 1.3-6.19.22-8.5-1.12-1.43-.83-2.11-1.77-2-2.77.21-2.27 5.09-7.8 6.77-8.74a1.43 1.43 0 0 1 1.25-.15 26.79 26.79 0 0 0 3-.09 38.69 38.69 0 0 1 7.47 0c2.68.45 11 3.84 15.76 5.81l1.72.73a1 1 0 0 1 -.78 1.84l-1.71-.72c-7.8-3.26-13.53-5.39-15.32-5.68a36.45 36.45 0 0 0 -7 0 18.56 18.56 0 0 1 -3.49.05c-1.38.82-5.52 5.79-5.64 7.12a4.82 4.82 0 0 0 2.41 1.49c2.2.85 4.39 1 5 .58a56.14 56.14 0 0 1 5.25-3.06 1 1 0 0 1 1.37.48c.16.36 4.3 9 16.52 8a1 1 0 1 1 .16 2c-.76.08-1.46.11-2.11.11z" fill="#093f68"/><path d="m247.75 180.05-3 22.07c0 4.56-3.7 9.26-8.26 9.26h-20.14v18h33.23a16.85 16.85 0 0 0 16.85-16.86l3-30.94" fill="#68e1fd"/><path d="m249.58 230.41h-33.23a1 1 0 0 1 -1-1v-18a1 1 0 0 1 1-1h20.18c4.08 0 7.26-4.44 7.26-8.26v-.15l3-22.07a1 1 0 1 1 2 .26l-3 22c0 4.83-4 10.19-9.25 10.19h-19.19v16h32.23a15.88 15.88 0 0 0 15.86-15.86l3-31a1 1 0 0 1 1.09-.9 1 1 0 0 1 .9 1.09l-3 31a17.85 17.85 0 0 1 -17.85 17.7z" fill="#093f68"/><path d="m214.52 209.68a1 1 0 0 1 -.82-.43c-.34-.48-8.23-11.92-1.62-23.6a1 1 0 0 1 1.37-.37 1 1 0 0 1 .37 1.36c-6 10.59 1.44 21.35 1.52 21.46a1 1 0 0 1 -.24 1.39 1 1 0 0 1 -.58.19z" fill="#093f68"/><path d="m229.32 135.23a11.49 11.49 0 0 1 -2.69-.28 1.76 1.76 0 0 1 -1.18-1c-1-2.17 1.91-8 2.81-9.77a1 1 0 0 1 1.78.92c-1.77 3.41-3 7-2.8 7.94a15.37 15.37 0 0 0 5 0 1 1 0 0 1 .35 2 20.13 20.13 0 0 1 -3.27.19z" fill="#093f68"/><ellipse cx="210.31" cy="124.64" fill="#093f68" rx="3.17" ry="3.17"/><ellipse cx="242.88" cy="124.64" fill="#093f68" rx="3.17" ry="3.17"/><path d="m168.62 130.21h-58.21a5.46 5.46 0 0 0 -5.46 5.45v32.18a5.46 5.46 0 0 0 5.46 5.45h12.13l5.68 8.76a.4.4 0 0 0 .73-.21v-8.55h39.67a5.45 5.45 0 0 0 5.45-5.45v-32.18a5.45 5.45 0 0 0 -5.45-5.45z" fill="#fff"/><path d="m128.55 183.23a1.41 1.41 0 0 1 -1.17-.63l-5.38-8.31h-11.59a6.46 6.46 0 0 1 -6.46-6.45v-32.18a6.46 6.46 0 0 1 6.46-6.45h58.21a6.45 6.45 0 0 1 6.45 6.45v32.18a6.45 6.45 0 0 1 -6.45 6.45h-38.62v7.55a1.37 1.37 0 0 1 -1 1.33 1.39 1.39 0 0 1 -.45.06zm-18.14-52a4.46 4.46 0 0 0 -4.46 4.45v32.18a4.46 4.46 0 0 0 4.46 4.45h12.13a1 1 0 0 1 .84.46l4.57 7v-6.5a1 1 0 0 1 1-1h39.67a4.45 4.45 0 0 0 4.45-4.45v-32.16a4.45 4.45 0 0 0 -4.45-4.45z" fill="#093f68"/><path d="m165.34 166h-49.65a1 1 0 0 1 -1-1v-27a1 1 0 0 1 2 0v26h48.65a1 1 0 0 1 0 2z" fill="#093f68"/><path d="m122.62 152.02h7.32v12.95h-7.32z" fill="#f56132"/><path d="m129.94 166h-7.32a1 1 0 0 1 -1-1v-13a1 1 0 0 1 1-1h7.32a1 1 0 0 1 1 1v13a1 1 0 0 1 -1 1zm-6.32-2h5.32v-11h-5.32z" fill="#093f68"/><path d="m136.84 144.93h7.32v20.04h-7.32z" fill="#ffbc0e"/><path d="m144.15 166h-7.31a1 1 0 0 1 -1-1v-20a1 1 0 0 1 1-1h7.31a1 1 0 0 1 1 1v20a1 1 0 0 1 -1 1zm-6.31-2h5.31v-18h-5.31z" fill="#093f68"/><path d="m151.06 137.2h7.32v27.77h-7.32z" fill="#70cc40"/><path d="m158.37 166h-7.31a1 1 0 0 1 -1-1v-27.8a1 1 0 0 1 1-1h7.31a1 1 0 0 1 1 1v27.8a1 1 0 0 1 -1 1zm-6.31-2h5.31v-25.8h-5.31z" fill="#093f68"/><path d="m163.26 79.17h-38.21a5.36 5.36 0 0 0 -5.36 5.36v26.8a5.36 5.36 0 0 0 5.36 5.36h23.39c0 2.08-.05 4.58-.08 6.23a.65.65 0 0 0 1.13.44l5.91-6.67h7.86a5.36 5.36 0 0 0 5.36-5.36v-26.8a5.36 5.36 0 0 0 -5.36-5.36z" fill="#fff"/><path d="m149 124.58a1.66 1.66 0 0 1 -.61-.12 1.62 1.62 0 0 1 -1-1.57c0-1.43.07-3.39.08-5.2h-22.42a6.36 6.36 0 0 1 -6.36-6.36v-26.8a6.37 6.37 0 0 1 6.36-6.36h38.21a6.37 6.37 0 0 1 6.36 6.36v26.8a6.36 6.36 0 0 1 -6.36 6.36h-7.41l-5.61 6.31a1.62 1.62 0 0 1 -1.24.58zm-24-44.41a4.37 4.37 0 0 0 -4.36 4.36v26.8a4.36 4.36 0 0 0 4.36 4.36h23.39a1 1 0 0 1 1 1c0 1.71 0 3.69-.06 5.29l5.28-6a1 1 0 0 1 .74-.34h7.86a4.36 4.36 0 0 0 4.36-4.36v-26.75a4.37 4.37 0 0 0 -4.36-4.36z" fill="#093f68"/><path d="m157.93 97.8a13.78 13.78 0 1 1 -13.77-13.8 13.83 13.83 0 0 1 13.77 13.8z" fill="#68e1fd"/><path d="m144.16 112.59a14.74 14.74 0 1 1 13-7.74 14.8 14.8 0 0 1 -13 7.74zm0-27.56a12.79 12.79 0 1 0 12.77 12.77 12.79 12.79 0 0 0 -12.77-12.8z" fill="#093f68"/><path d="m157.93 97.8a13.83 13.83 0 0 1 -1.65 6.57l-12.12-6.57v-13.8a13.78 13.78 0 0 1 13.77 13.8z" fill="#fff"/><g fill="#093f68"><path d="m156.28 105.37a1 1 0 0 1 -.48-.12l-12.12-6.57a1 1 0 0 1 -.52-.88v-13.8a1 1 0 0 1 1-1 14.79 14.79 0 0 1 14.77 14.8 15 15 0 0 1 -1.77 7 1 1 0 0 1 -.6.48.9.9 0 0 1 -.28.09zm-11.12-8.16 10.68 5.79a12.8 12.8 0 0 0 -10.68-17.93z"/><path d="m213.32 133.57a11.17 11.17 0 1 1 11.17-11.16 11.18 11.18 0 0 1 -11.17 11.16zm0-20.33a9.17 9.17 0 1 0 9.17 9.17 9.18 9.18 0 0 0 -9.17-9.17z"/><path d="m243.56 133.57a11.17 11.17 0 1 1 11.17-11.16 11.18 11.18 0 0 1 -11.17 11.16zm0-20.33a9.17 9.17 0 1 0 9.17 9.17 9.18 9.18 0 0 0 -9.17-9.17z"/><path d="m233.39 123.41h-9.9a1 1 0 0 1 0-2h9.9a1 1 0 0 1 0 2z"/><path d="m203.29 121.83a1 1 0 0 1 -.63-.22l-5.57-4.49a1 1 0 0 1 1.25-1.56l5.57 4.49a1 1 0 0 1 .15 1.41 1 1 0 0 1 -.77.37z"/><path d="m253.73 123.41a1 1 0 0 1 -.95-.68 1 1 0 0 1 .63-1.27l15-5.07a1 1 0 1 1 .64 1.89l-15 5.07a1 1 0 0 1 -.32.06z"/></g><ellipse cx="142.19" cy="205.68" fill="#fff" rx="3.67" ry="4.73" transform="matrix(.81279585 -.58254863 .58254863 .81279585 -93.2 121.33)"/><path d="m143.15 211.08a6.46 6.46 0 0 1 -5.88-5.18 4.91 4.91 0 0 1 .82-4.15 4 4 0 0 1 3.14-1.46 6.47 6.47 0 0 1 5.88 5.18 4.91 4.91 0 0 1 -.82 4.15 4 4 0 0 1 -3.14 1.46zm-1.92-8.79a2 2 0 0 0 -1.58.71 2.94 2.94 0 0 0 -.43 2.47 4.54 4.54 0 0 0 3.93 3.61 2 2 0 0 0 1.58-.72 2.89 2.89 0 0 0 .42-2.46 4.52 4.52 0 0 0 -3.92-3.61z" fill="#093f68"/></svg>