<svg clip-rule="evenodd" fill-rule="evenodd" height="2048" image-rendering="optimizeQuality" shape-rendering="geometricPrecision" text-rendering="geometricPrecision" viewBox="0 0 2048 2048" width="2048" xmlns="http://www.w3.org/2000/svg"><path d="m893 559c45-16 95-25 148-25 121 0 230 47 299 121h117v1c123 7 220 92 220 196 0 109-106 197-236 197-31 0-60-5-88-14-69 82-183 135-312 135-95 0-182-29-248-77-54 29-119 46-188 46-191 0-345-129-345-288 0-145 128-265 295-285 18-65 87-113 171-113 79 0 146 44 168 105z" fill="#8ed2f4"/><path d="m627 651c-138 0-250 93-250 208" fill="none" stroke="#e1f5fe" stroke-linecap="round" stroke-linejoin="round" stroke-width="25.0004"/><path d="m817 737c43-68 128-111 221-111 30 0 59 4 87 13" fill="none" stroke="#e1f5fe" stroke-linecap="round" stroke-linejoin="round" stroke-width="10.0004"/><path d="m1202 784c34-12 71-19 111-19 91 0 172 35 224 91h87c92 5 165 69 165 147 0 81-79 148-177 148-23 0-45-4-66-10-52 61-137 101-234 101-71 0-136-22-186-57-40 22-89 35-141 35-143 0-258-97-258-216 0-108 96-198 221-213 13-49 65-85 128-85 59 0 110 33 126 78z" fill="#9ddaf8"/><path d="m828 996c11-50 49-89 98-102 16-4 32-5 48-4" fill="none" stroke="#e1f5fe" stroke-linecap="round" stroke-linejoin="round" stroke-width="15"/><path d="m1237 1014v512h128l1-512z" fill="#b71c1c"/><path d="m1054 1353 247 241 248-241z" fill="#b71c1c" fill-rule="nonzero"/><path d="m1301 1526v-173-111-157-71h65v111l-1 109v119h184l-248 241z" fill="#a52120"/><path d="m0 0h2048v2048h-2048z" fill="none"/></svg>