<svg enable-background="new 0 0 128 128" viewBox="0 0 128 128" xmlns="http://www.w3.org/2000/svg" xmlns:xlink="http://www.w3.org/1999/xlink"><linearGradient id="a"><stop offset="0" stop-color="#40c4ff"/><stop offset=".3807" stop-color="#3ec2fe"/><stop offset=".5459" stop-color="#37bdfc"/><stop offset=".6693" stop-color="#2ab3f8"/><stop offset=".7713" stop-color="#18a5f2"/><stop offset=".849" stop-color="#0595ec"/><stop offset="1" stop-color="#0091ea"/></linearGradient><radialGradient id="b" cx="23.75" cy="13.875" gradientUnits="userSpaceOnUse" r="77.71" xlink:href="#a"/><radialGradient id="c" cx="46.125" cy="51.375" gradientUnits="userSpaceOnUse" r="77.71" xlink:href="#a"/><radialGradient id="d" cx="98.5" cy="14.625" gradientUnits="userSpaceOnUse" r="77.71" xlink:href="#a"/><path d="m52 38.86c-.09-13.04-2.26-16.72-16.03-27.07-5.73-4.31-4.6-7.32-6.15-7.74-.92-.25-1.82.43-1.82 1.36v45.81c0 .61-.55 1.09-1.15.98-5.19-.9-11.53 1.29-16.45 6.2-7.07 7.07-8.5 17.1-3.2 22.4s15.33 3.87 22.4-3.2c4.52-4.52 6.72-10.23 6.35-15.16l.02-39.78c0-.73.73-1.13 1.43-.91 2.63.83 11.41 4.29 12.04 17.81.06 1.36 2.58 1.62 2.56-.7z" fill="url(#b)"/><path d="m72 78.86c-.09-13.04-2.26-16.72-16.03-27.07-5.73-4.31-4.6-7.32-6.15-7.74-.92-.25-1.82.43-1.82 1.36v45.81c0 .61-.55 1.09-1.15.98-5.19-.9-11.53 1.29-16.45 6.2-7.07 7.07-8.5 17.1-3.2 22.4s15.33 3.87 22.4-3.2c4.52-4.52 6.72-10.23 6.35-15.16l.02-39.78c0-.73.73-1.13 1.43-.91 2.63.83 11.41 4.29 12.04 17.81.06 1.36 2.58 1.62 2.56-.7z" fill="url(#c)"/><path d="m124 38.86c-.09-13.04-2.26-16.72-16.03-27.07-5.73-4.31-4.6-7.32-6.15-7.74-.92-.25-1.82.43-1.82 1.36v45.81c0 .61-.55 1.09-1.15.98-5.19-.9-11.53 1.29-16.45 6.2-7.07 7.07-8.5 17.1-3.2 22.4s15.33 3.87 22.4-3.2c4.52-4.52 6.72-10.23 6.35-15.16l.02-39.78c0-.73.73-1.13 1.43-.91 2.63.83 11.41 4.29 12.04 17.81.06 1.36 2.58 1.62 2.56-.7z" fill="url(#d)"/><g fill="#424242"><path d="m31 11.33c.8.9 1.83 1.86 3.16 2.86 3.27 2.46 5.83 4.48 7.83 6.31-1.41-.8-2.71-1.3-3.69-1.61-.42-.13-.86-.2-1.3-.2-2.26 0-4.04 1.74-4.04 3.97l-.02 39.78v.11l.01.11c.32 4.27-1.73 9.06-5.48 12.82-3.45 3.46-7.92 5.52-11.96 5.52-1.76 0-4.27-.4-6.19-2.32-1.88-1.88-2.66-4.72-2.19-7.99.51-3.59 2.43-7.2 5.39-10.16 3.46-3.46 7.93-5.53 11.97-5.53.64 0 1.26.05 1.85.15.22.04.45.06.68.06 2.2 0 3.98-1.79 3.98-4zm-1.57-7.33c-.77 0-1.43.62-1.43 1.41v45.81c0 .56-.45 1-.98 1-.06 0-.11 0-.17-.01-.76-.13-1.55-.2-2.36-.2-4.67 0-9.9 2.21-14.09 6.4-7.07 7.07-8.5 17.1-3.2 22.4 2.16 2.16 5.1 3.2 8.31 3.2 4.67 0 9.9-2.21 14.09-6.4 4.52-4.52 6.72-10.23 6.35-15.16l.02-39.78c0-.6.48-.97 1.04-.97.13 0 .26.02.39.06 2.63.83 11.41 4.29 12.04 17.81.03.64.6 1.03 1.2 1.03.67 0 1.38-.5 1.37-1.74-.09-13.04-2.26-16.72-16.03-27.07-5.73-4.31-4.6-7.32-6.15-7.74-.15-.03-.28-.05-.4-.05z" opacity=".2"/><path d="m51 51.33c.8.9 1.83 1.86 3.16 2.86 3.27 2.46 5.83 4.48 7.83 6.31-1.41-.8-2.71-1.3-3.69-1.61-.42-.13-.86-.2-1.3-.2-2.26 0-4.04 1.74-4.04 3.97l-.02 39.78v.11l.01.11c.32 4.27-1.73 9.06-5.48 12.82-3.46 3.46-7.93 5.52-11.97 5.52-1.76 0-4.27-.4-6.19-2.32-1.88-1.88-2.66-4.72-2.19-7.99.51-3.59 2.43-7.2 5.39-10.16 3.47-3.46 7.94-5.53 11.98-5.53.64 0 1.26.05 1.85.15.22.04.45.06.68.06 2.2 0 3.98-1.79 3.98-4zm-1.57-7.33c-.77 0-1.43.62-1.43 1.41v45.81c0 .56-.45 1-.98 1-.06 0-.11 0-.17-.01-.76-.13-1.55-.2-2.36-.2-4.67 0-9.9 2.21-14.09 6.4-7.07 7.07-8.5 17.1-3.2 22.4 2.16 2.16 5.1 3.2 8.31 3.2 4.67 0 9.9-2.21 14.09-6.4 4.52-4.52 6.72-10.23 6.35-15.16l.02-39.78c0-.6.48-.97 1.04-.97.13 0 .26.02.39.06 2.63.83 11.41 4.29 12.04 17.81.03.64.6 1.03 1.2 1.03.67 0 1.38-.5 1.37-1.74-.09-13.04-2.26-16.72-16.03-27.07-5.73-4.31-4.6-7.32-6.15-7.74-.15-.03-.28-.05-.4-.05z" opacity=".2"/><path d="m103 11.33c.8.9 1.83 1.86 3.16 2.86 3.27 2.46 5.83 4.48 7.83 6.31-1.41-.8-2.71-1.3-3.69-1.61-.42-.13-.86-.2-1.3-.2-2.26 0-4.04 1.74-4.04 3.97l-.02 39.78v.11l.01.11c.32 4.27-1.73 9.06-5.48 12.82-3.45 3.46-7.92 5.52-11.96 5.52-1.76 0-4.27-.4-6.19-2.32-1.88-1.88-2.66-4.72-2.19-7.99.51-3.59 2.43-7.2 5.39-10.16 3.46-3.46 7.93-5.53 11.97-5.53.64 0 1.26.05 1.85.15.22.04.45.06.68.06 2.2 0 3.98-1.79 3.98-4zm-1.57-7.33c-.77 0-1.43.62-1.43 1.41v45.81c0 .56-.45 1-.98 1-.06 0-.11 0-.17-.01-.76-.13-1.55-.2-2.36-.2-4.67 0-9.9 2.21-14.09 6.4-7.07 7.07-8.5 17.1-3.2 22.4 2.16 2.16 5.1 3.2 8.31 3.2 4.67 0 9.9-2.21 14.09-6.4 4.52-4.52 6.72-10.23 6.35-15.16l.02-39.78c0-.6.48-.97 1.04-.97.13 0 .26.02.39.06 2.63.83 11.41 4.29 12.04 17.81.03.64.6 1.03 1.2 1.03.67 0 1.38-.5 1.37-1.74-.09-13.04-2.26-16.72-16.03-27.07-5.73-4.31-4.6-7.32-6.15-7.74-.15-.03-.28-.05-.4-.05z" opacity=".2"/></g></svg>