<svg height="32" width="32" xmlns="http://www.w3.org/2000/svg" xmlns:xlink="http://www.w3.org/1999/xlink"><linearGradient id="a" gradientTransform="matrix(.66666726 0 0 .63518419 141.19014 191.51873)" gradientUnits="userSpaceOnUse" x2="0" y1="543.79797" y2="502.65509"><stop offset="0" stop-color="#c6cdd1"/><stop offset="1" stop-color="#e0e5e7"/></linearGradient><linearGradient id="b" gradientUnits="userSpaceOnUse" x1="404.571429" x2="419.571459" y1="518.798" y2="533.798"><stop offset="0"/><stop offset="1" stop-opacity="0"/></linearGradient><g transform="translate(-397.571426 -508.798002)"><path d="m397.57144 510.79797h32v28h-32z" fill="url(#a)"/><path d="m398.57142 536.79803 30-20 1.00001 1-.00001 20.99997-29 .00003z" fill="url(#b)" fill-rule="evenodd" opacity=".2"/><path d="m397.57141 537.79797h31.999983v1h-31.999983z" fill="#99a1a7"/><path d="m397.57141 510.79797h32.00001v4h-32.00001z" fill="#566069"/><path d="m397.57141 514.79797h31.999968v1h-31.999968z" fill="#3daee9"/><path d="m398.57141 516.79797h30v20.00003h-30z" fill="#fff"/><rect fill="#eff0f1" height="2" rx="1" width="2" x="426.57141" y="511.79797"/></g><g transform="translate(-384.57143 -515.798)"><path d="m4 11v6h7v-5h-3l-1-1z" fill="#7aabdc" transform="translate(384.57143 515.798)"/><path d="m388.57143 534.798v6h7v-5h-3l-1-1z" fill="#7aabdc"/><path d="m398.57143 526.798v6h5v-4l-2-2z" fill="#f95"/><path d="m401.57144 526.79797 2 2h-2z" fill="#d45500" fill-rule="evenodd"/><path d="m398.57143 534.798v6h5v-4l-2-2z" fill="#71c837"/><path d="m401.57144 534.79797 2 2h-2z" fill="#447821" fill-rule="evenodd"/><rect fill="#333" height="5.999974" rx=".000026" width="6.00001" x="406.57144" y="526.79797"/><rect fill="#3daee9" height="2" rx="1" width="4" x="407.57144" y="528.79797"/><rect fill="#eff0f1" height="2" rx="1" width="2" x="409.57144" y="528.79797"/></g></svg>