<svg enable-background="new 0 0 2048 2048" viewBox="0 0 2048 2048" xmlns="http://www.w3.org/2000/svg"><path d="m576.255 1441.216c-176.862 0-320.255-143.393-320.255-320.267 0-88.449 35.848-168.504 93.8-226.468 57.951-57.951 138.03-93.787 226.455-93.787h18.997c0-236.798 191.951-428.749 428.749-428.749s428.749 191.951 428.749 428.749h18.997c176.862 0 320.255 143.368 320.255 320.255 0 88.437-35.848 168.504-93.8 226.468-57.951 57.951-138.03 93.8-226.455 93.8h-895.492z" fill="#bbecff"/><path d="m1364.845 1676.054h-681.69c-22.091 0-40-17.909-40-40v-463.641c0-22.091 17.909-40 40-40h681.69c22.091 0 40 17.909 40 40v463.641c0 22.092-17.909 40-40 40z" fill="#fc636e"/><path d="m1145.672 1404.234-182.508-125.782v251.564z" fill="#e1efff"/></svg>