<svg viewBox="0 0 72 72" xmlns="http://www.w3.org/2000/svg"><path d="m16.4082 58.7958s-2-13.5 10-13.5c3.1919 2.1279 5.9264 3.5984 9 3.5921h-.125c3.0736.0063 5.5081-2.1642 8.7-4.2921 15.5705-.0001 10.7 14.2 10.7 14.2" fill="#fff"/><path d="m45.2932 44.1229c-3.17 2.1133-3.075 3.7-7.1375 4.2886 13.0625.4114 13.0625 5.4114 13.8246 9.4114h5.1129s.2-13.7-11.8-13.7z" fill="#d0cfce"/><path d="m58.4274 43.1684h-1.1793v6.4783l3.8661 8.8386s.3081 1.3804-.7928 1.3804c-.5364 0-9.8482.0117-10.3846.0117-1.1009 0-.7928-1.3804-.7928-1.3804l3.8661-8.8286v-6.5h-1.0854" fill="#fff"/><path d="m53.0101 43.1684h4.238" fill="none"/><path d="m57.0481 49.6467 3.8661 8.8386s.3081 1.3804-.7928 1.3804c-.5364 0-9.8482.0117-10.3846.0117-1.1009 0-.7928-1.3804-.7928-1.3804l3.8661-8.8286" fill="#b1cc33"/><path d="m22.8026 25.1725s12.7029-7.0231 26.2497.8022l-3.8831 6.0255s-6.7095.9322-9.2418-1.6c-2.5912 2.5912-8.4903 1.6-8.4903 1.6z" fill="#92d3f5"/><path d="m52.1519 25.2249c-.7507-5.994-2.7826-10.6506-5.1433-12.7278-2.9246-2.5738-6.459-.514-6.459-.514s-5.3405-6.4837-12.9044-1.6624c-7.5638 4.8214-8.3703 14.9042-8.3703 14.9042s-.7261 8.073.3152 16.5172c.2071 1.6792.6382 3.3293 1.3223 4.8728 1.3883-.8123 3.1788-1.3191 5.4958-1.3191 3.1658 2.1105 5.8825 3.5701 8.9255 3.5878 3.0493-.0179 5.4755-2.1718 8.6495-4.2878 2.7432 0 4.8411.447 6.4537 1.1732.6005-1.0406 1.0916-2.1504 1.4464-3.3234.3227-1.0668.4429-2.1835.4549-3.298.0347-3.2445.1754-11.0359-.1863-13.9227zm-6.9827 6.7753s-6.7095.9322-9.2418-1.6c-2.5912 2.5912-8.4904 1.6-8.4904 1.6l-4.6345-6.8277s12.7029-7.0231 26.2497.8022z" fill="#e27022"/><path d="m47.4246 25.1099-8.4968-6.6935c-2.4692 1.8462-4.9036 3.1522-7.0764 4.0812 4.339-.5405 9.8359-.2295 15.5732 2.6123z" fill="#fcea2b"/><path d="m45.1692 32.0002s-6.7095.9322-9.2418-1.6c-2.5912 2.5912-8.4904 1.6-8.4904 1.6l-2.4694-3.638c.1837 7.6266 5.1753 13.7426 11.3212 13.7426 6.1889 0 11.2108-6.2008 11.3276-13.902z" fill="#fcea2b"/><path d="m33.026 54.8917v1.7693" style="fill:none;stroke:#000;stroke-linecap:round;stroke-linejoin:round;stroke-miterlimit:10;stroke-width:2"/><path d="m41.8917 27.0725c0 1.1045-.8965 2-2 2s-2-.8955-2-2c0-1.1035.8965-2 2-2s2 .8965 2 2"/><path d="m33.8917 27.0725c0 1.1045-.8965 2-2 2s-2-.8955-2-2c0-1.1035.8965-2 2-2s2 .8965 2 2"/><path d="m35.8915 37.0749c-1.1518 0-2.3037-.2861-3.4472-.8579-.4942-.2471-.6944-.8477-.4473-1.3418.2466-.4937.8462-.6944 1.3418-.4473 1.7178.8594 3.3877.8594 5.1055 0 .4946-.2471 1.0947-.0464 1.3418.4473.247.4941.0468 1.0947-.4473 1.3418-1.1436.5718-2.2954.8579-3.4473.8579z"/><g style="fill:none;stroke:#000;stroke-linecap:round;stroke-linejoin:round;stroke-miterlimit:10;stroke-width:2"><path d="m47.1732 29.8627c-.5734 7.1564-5.4055 12.7438-11.2817 12.7438-6.2621 0-11.3386-6.3456-11.3386-14.1732v-1.2531"/><path d="m16.8316 57.9252s-2-13 10-13c3.1919 2.128 5.9264 3.5985 9 3.5922h-.125c3.0736.0063 5.8081-1.4642 9-3.5922 1.8775 0 3.4123.3183 4.6656.8551"/><path d="m58.3099 43.0707h-1.1793v6.4784l3.8661 8.8385s.3081 1.3805-.7928 1.3805c-.5364 0-9.8482.0116-10.3846.0116-1.1009 0-.7928-1.3804-.7928-1.3804l3.8661-8.8286v-6.5h-1.0854"/><path d="m52.8926 43.0707h4.238"/><path d="m32.2796 22.3852c4.2811-1.6427 6.6482-3.9688 6.6482-3.9688s3.8316 3.9334 7.8297 6.0854"/><path d="m20.7138 42.7252c-1.3842-8.8622-.3955-18.0509-.3955-18.0509s.7556-9.7405 7.8405-14.3982 12.0875 1.6059 12.0875 1.6059 3.3103-1.9898 6.05.4966c2.2111 2.0066 4.1143 6.5052 4.8177 12.2957.4325 3.5614.5575 9.7039.2505 14.8494"/><path d="m26.3376 44.9252s4.831 7.1009 11.0601 7.7101v5.2899"/><path d="m33.026 56.1342v1.7694"/><path d="m23.1223 25.0725s12.7029-7.0231 26.2497.8022l-3.8831 6.0255s-6.7095.9322-9.2418-1.6c-2.5912 2.5912-8.4903 1.6-8.4903 1.6z"/></g></svg>